# xmcd CD database file
#
# Track frame offsets:
#	150
#	18652
#	34359
#	55949
#	69357
#	79431
#	102487
#	112753
#	126545
#	143271
#	153671
#	170190
#	179921
#	185723
#	192160
#	200036
#	206186
#	211704
#	216866
#	224231
#	231642
#	240724
#	247090
#	255453
#	263117
#	270965
#	275175
#
# Disc length: 3813 seconds
#
# Revision: 0
# Processed by: cddbd v1.5.2PL0 Copyright (c) Steve Scherf et al.
# Submitted via: jetAudio 7
#
DISCID=c00ee31b
DTITLE=Charly Fontana - Mundaharmonika Solist
DYEAR=1900
DGENRE=Country
TTITLE0=Caprifischer
TTITLE1=La Paloma
TTITLE2=Mein Leben mit der Mundharmonika
TTITLE3=In Milano
TTITLE4=Die Gittare und das Meer
TTITLE5=Indios
TTITLE6=Guanacero
TTITLE7=Cucurucucu
TTITLE8=Seemann, lass das Träumen
TTITLE9=Don Pedrito
TTITLE10=Damals ging ich in die Welt
TTITLE11=Mexico
TTITLE12=That's amore
TTITLE13=Dier Goldgräber
TTITLE14=Brasil
TTITLE15=Maringá
TTITLE16=Filanca
TTITLE17=Sentimental journey
TTITLE18=Solamente uma vez
TTITLE19=Viehtransport von Texas
TTITLE20=Wenn der alte West
TTITLE21=Kalinka
TTITLE22=Dr. Ziwago
TTITLE23=Mücke Malaria
TTITLE24=Duellfeuer
TTITLE25=Cassius play
TTITLE26=Von den Blauen Bergen kommen wir
EXTD=
EXTT0=
EXTT1=
EXTT2=
EXTT3=
EXTT4=
EXTT5=
EXTT6=
EXTT7=
EXTT8=
EXTT9=
EXTT10=
EXTT11=
EXTT12=
EXTT13=
EXTT14=
EXTT15=
EXTT16=
EXTT17=
EXTT18=
EXTT19=
EXTT20=
EXTT21=
EXTT22=
EXTT23=
EXTT24=
EXTT25=
EXTT26=
PLAYORDER=
